<svg width="48" height="48" viewBox="0 0 48 48" fill="none" xmlns="http://www.w3.org/2000/svg">
<g clip-path="url(#clip0_167_14)">
<path d="M24 48C37.2548 48 48 37.2548 48 24C48 10.7452 37.2548 0 24 0C10.7452 0 0 10.7452 0 24C0 37.2548 10.7452 48 24 48Z" fill="#2CA01C"/>
<path d="M5.78491 23.9922C5.78683 29.4182 10.1625 33.8303 15.5884 33.8783H16.9766V30.2514H15.5884C12.2246 31.1692 8.75515 29.1858 7.83931 25.822C7.83163 25.7951 7.82587 25.7682 7.81819 25.7414C6.87547 22.3334 8.84923 18.8025 12.2457 17.8214H12.9388C13.8086 17.6313 14.7091 17.6313 15.5788 17.8214H18.9504V37.077C18.9331 39.1142 20.5708 40.7807 22.608 40.7999V14.0082H15.6096C10.1452 14.037 5.74075 18.4895 5.76955 23.9538V23.9558L5.78491 23.9922ZM32.4249 14.0121H31.0368V17.831H32.4249C35.7811 16.9151 39.2428 18.8927 40.1587 22.247C40.1664 22.2719 40.1721 22.2988 40.1798 22.3238C41.1167 25.7202 39.1488 29.2377 35.7657 30.2169H35.0726C34.2028 30.407 33.3024 30.407 32.4326 30.2169H29.0611V10.9631C29.0784 8.92599 27.4406 7.25943 25.4035 7.24023V34.0703H32.4019C37.9142 33.9839 42.3129 29.447 42.2284 23.9346C42.144 18.5433 37.7952 14.1926 32.4019 14.1081L32.4249 14.0121Z" fill="white"/>
</g>
<defs>
<clipPath id="clip0_167_14">
<rect width="48" height="48" fill="white"/>
</clipPath>
</defs>
</svg>
