<svg width="48" height="48" viewBox="0 0 48 48" fill="none" xmlns="http://www.w3.org/2000/svg">
<g clip-path="url(#clip0_167_32)">
<path d="M24.0006 48C37.2549 48 48 37.2542 48 24C48 10.7438 37.2561 0 24.0006 0C10.7451 0 0 10.7438 0 24C0 37.2542 10.7451 48 24.0006 48Z" fill="#1FC0E7"/>
<path d="M11.6939 23.9941L15.7814 19.8875C15.8826 19.7845 15.9512 19.6539 15.9786 19.512C16.0059 19.3702 15.9908 19.2235 15.9351 19.0902C15.8794 18.9569 15.7856 18.8431 15.6654 18.7629C15.5453 18.6827 15.4042 18.6398 15.2597 18.6395C15.0625 18.6395 14.878 18.7163 14.7392 18.8581L10.654 22.9463L6.55262 18.8504C6.41483 18.7143 6.22875 18.6384 6.03512 18.6393C5.88971 18.6394 5.74764 18.6828 5.62697 18.7639C5.5063 18.845 5.41249 18.9602 5.35749 19.0948C5.30248 19.2294 5.28876 19.3773 5.31808 19.5198C5.3474 19.6622 5.41842 19.7927 5.52212 19.8946L9.60962 23.9875L5.52437 28.0835C5.38131 28.2263 5.30237 28.412 5.30237 28.6094C5.30232 28.8039 5.37949 28.9904 5.51693 29.128C5.65437 29.2657 5.84082 29.3431 6.03531 29.3433C6.23031 29.3433 6.41406 29.2685 6.55262 29.1299L10.6486 25.0317L14.7286 29.1138C14.8737 29.2632 15.0593 29.3433 15.2597 29.3433C15.4541 29.3429 15.6403 29.2654 15.7775 29.1278C15.9147 28.9902 15.9917 28.8037 15.9916 28.6094C15.9916 28.4142 15.9169 28.2306 15.7782 28.0919L11.6929 23.9896L11.6939 23.9939V23.9941ZM35.9937 23.993C35.9938 24.3465 36.1344 24.6856 36.3844 24.9356C36.6344 25.1856 36.9734 25.3261 37.327 25.3263C38.0588 25.3263 38.656 24.7289 38.656 23.9931C38.656 23.257 38.0588 22.6596 37.3259 22.6596C36.5931 22.6596 35.9969 23.257 35.9969 23.993H35.9937ZM33.4711 23.993C33.4711 21.8648 35.1991 20.1316 37.3261 20.1316C39.4486 20.1316 41.1797 21.865 41.1797 23.993C41.1797 26.1211 39.4497 27.8543 37.3259 27.8543C35.2 27.8543 33.4709 26.1231 33.4709 23.993H33.4711ZM31.9542 23.993C31.9542 26.9583 34.3649 29.3733 37.3261 29.3733C40.2871 29.3733 42.6977 26.9605 42.6977 23.9939C42.6977 21.0288 40.2871 18.6138 37.3259 18.6138C34.3637 18.6138 31.9542 21.0276 31.9542 23.9941V23.993ZM31.5736 18.7055H31.3493C30.6721 18.7055 30.0192 18.9188 29.4743 19.3401C29.3995 19.0139 29.1051 18.7641 28.7552 18.7641C28.6597 18.7642 28.565 18.7831 28.4768 18.8199C28.3885 18.8566 28.3084 18.9104 28.241 18.9782C28.1736 19.046 28.1203 19.1264 28.0841 19.2149C28.0478 19.3034 28.0295 19.3981 28.03 19.4937L28.0321 28.555C28.0321 28.9572 28.3628 29.2848 28.7627 29.2848C28.9568 29.2845 29.1429 29.2073 29.2802 29.0702C29.4175 28.933 29.495 28.747 29.4955 28.553V22.9806C29.4955 21.1248 29.6661 20.3738 31.2533 20.1755C31.4027 20.1573 31.5606 20.1605 31.5627 20.1605C31.9958 20.1445 32.3052 19.8447 32.3052 19.4405C32.3047 19.2456 32.227 19.0588 32.0889 18.9212C31.9509 18.7836 31.7639 18.7064 31.5691 18.7066L31.5734 18.7055H31.5736ZM17.5082 23.1087C17.5082 23.0873 17.5105 23.066 17.5114 23.0468C17.9361 21.3616 19.4592 20.1168 21.2716 20.1168C23.1062 20.1168 24.6422 21.3903 25.0474 23.1055H17.5073L17.5082 23.1087ZM26.5461 22.97C26.2304 21.4735 25.4123 20.2437 24.1675 19.4543C22.3457 18.296 19.9412 18.3599 18.1834 19.6143C16.7477 20.635 15.919 22.3077 15.919 24.0303C15.919 24.4623 15.9722 24.8984 16.0789 25.3285C16.6208 27.4617 18.4534 29.0789 20.638 29.3466C21.2864 29.4254 21.9179 29.3892 22.5687 29.2186C23.1317 29.0798 23.6747 28.8537 24.175 28.5316C24.6944 28.1978 25.1286 27.7561 25.5511 27.2281C25.5574 27.2176 25.5661 27.2101 25.5745 27.1994C25.8668 26.8368 25.8122 26.3181 25.4924 26.0729C25.2214 25.865 24.7669 25.7808 24.4107 26.2394C24.3338 26.3504 24.2476 26.4635 24.1547 26.5754C23.8699 26.89 23.5169 27.1941 23.0944 27.4308C22.5395 27.7269 21.9208 27.8833 21.2918 27.8864C19.1607 27.8618 18.0214 26.3716 17.6149 25.3092C17.544 25.1077 17.4894 24.9008 17.4518 24.6905L17.4411 24.5785H25.0892C26.1366 24.5551 26.6999 23.8137 26.5441 22.9679L26.5461 22.97Z" fill="white"/>
</g>
<defs>
<clipPath id="clip0_167_32">
<rect width="48" height="48" fill="white"/>
</clipPath>
</defs>
</svg>
